<svg width="1200" height="900" viewBox="0 0 1200 900" fill="none" xmlns="http://www.w3.org/2000/svg">
  <rect width="1200" height="900" rx="48" fill="#0A0A0D"/>
  <rect x="24" y="24" width="1152" height="852" rx="36" fill="url(#bg)"/>

  <circle cx="600" cy="450" r="280" fill="url(#glow)" opacity="0.18"/>

  <circle cx="600" cy="450" r="88" stroke="url(#ring1)" stroke-width="1.5"/>
  <circle cx="600" cy="450" r="148" stroke="url(#ring2)" stroke-width="1.2"/>
  <circle cx="600" cy="450" r="220" stroke="url(#ring3)" stroke-width="1" stroke-dasharray="6 10"/>
  <circle cx="600" cy="450" r="300" stroke="url(#ring4)" stroke-width="0.8" stroke-dasharray="4 14"/>

  <circle cx="600" cy="450" r="6" fill="#F1E7D8"/>
  <circle cx="600" cy="362" r="4" fill="#E8DDCE" opacity="0.7"/>
  <circle cx="688" cy="450" r="4" fill="#E8DDCE" opacity="0.7"/>
  <circle cx="546" cy="546" r="3.5" fill="#6C80B0" opacity="0.6"/>
  <circle cx="748" cy="370" r="3.5" fill="#6C80B0" opacity="0.6"/>

  <defs>
    <linearGradient id="bg" x1="600" y1="24" x2="600" y2="876" gradientUnits="userSpaceOnUse">
      <stop stop-color="#111117"/>
      <stop offset="1" stop-color="#0D0D11"/>
    </linearGradient>
    <radialGradient id="glow" cx="0" cy="0" r="1" gradientUnits="userSpaceOnUse" gradientTransform="translate(600 450) scale(280)">
      <stop stop-color="#D8B186" stop-opacity="0.6"/>
      <stop offset="1" stop-color="#D8B186" stop-opacity="0"/>
    </radialGradient>
    <linearGradient id="ring1" x1="512" y1="362" x2="688" y2="538" gradientUnits="userSpaceOnUse">
      <stop stop-color="#F1E7D8"/>
      <stop offset="1" stop-color="#967B5E"/>
    </linearGradient>
    <linearGradient id="ring2" x1="452" y1="302" x2="748" y2="598" gradientUnits="userSpaceOnUse">
      <stop stop-color="#E8DDCE" stop-opacity="0.7"/>
      <stop offset="1" stop-color="#7A6855" stop-opacity="0.4"/>
    </linearGradient>
    <linearGradient id="ring3" x1="380" y1="230" x2="820" y2="670" gradientUnits="userSpaceOnUse">
      <stop stop-color="#6C80B0" stop-opacity="0.5"/>
      <stop offset="1" stop-color="#E8DDCE" stop-opacity="0.25"/>
    </linearGradient>
    <linearGradient id="ring4" x1="300" y1="150" x2="900" y2="750" gradientUnits="userSpaceOnUse">
      <stop stop-color="#E8DDCE" stop-opacity="0.2"/>
      <stop offset="1" stop-color="#6C80B0" stop-opacity="0.12"/>
    </linearGradient>
  </defs>
</svg>
