<svg width="1200" height="900" viewBox="0 0 1200 900" fill="none" xmlns="http://www.w3.org/2000/svg">
  <rect width="1200" height="900" rx="48" fill="#0A0A0D"/>
  <rect x="24" y="24" width="1152" height="852" rx="36" fill="url(#bg)"/>

  <circle cx="700" cy="380" r="260" fill="url(#glow)" opacity="0.15"/>

  <path d="M200 620C320 580 440 510 560 430C680 350 800 310 1000 300" stroke="url(#arc1)" stroke-width="2" stroke-linecap="round"/>
  <path d="M200 660C340 630 460 570 580 490C700 410 820 370 1000 370" stroke="url(#arc2)" stroke-width="1.4" stroke-linecap="round" stroke-dasharray="8 12"/>
  <path d="M200 580C310 530 420 450 540 370C660 290 790 260 1000 240" stroke="url(#arc3)" stroke-width="1" stroke-linecap="round" opacity="0.5"/>

  <circle cx="560" cy="430" r="4" fill="#F1E7D8" opacity="0.7"/>
  <circle cx="1000" cy="300" r="5" fill="#F1E7D8"/>
  <circle cx="200" cy="620" r="3.5" fill="#E8DDCE" opacity="0.5"/>

  <defs>
    <linearGradient id="bg" x1="600" y1="24" x2="600" y2="876" gradientUnits="userSpaceOnUse">
      <stop stop-color="#111117"/>
      <stop offset="1" stop-color="#0D0D11"/>
    </linearGradient>
    <radialGradient id="glow" cx="0" cy="0" r="1" gradientUnits="userSpaceOnUse" gradientTransform="translate(700 380) scale(260)">
      <stop stop-color="#D8B186" stop-opacity="0.5"/>
      <stop offset="1" stop-color="#D8B186" stop-opacity="0"/>
    </radialGradient>
    <linearGradient id="arc1" x1="200" y1="460" x2="1000" y2="460" gradientUnits="userSpaceOnUse">
      <stop stop-color="#7A6855" stop-opacity="0.4"/>
      <stop offset="0.5" stop-color="#F1E7D8"/>
      <stop offset="1" stop-color="#6C80B0" stop-opacity="0.5"/>
    </linearGradient>
    <linearGradient id="arc2" x1="200" y1="515" x2="1000" y2="515" gradientUnits="userSpaceOnUse">
      <stop stop-color="#E8DDCE" stop-opacity="0.3"/>
      <stop offset="1" stop-color="#7A6855" stop-opacity="0.2"/>
    </linearGradient>
    <linearGradient id="arc3" x1="200" y1="410" x2="1000" y2="410" gradientUnits="userSpaceOnUse">
      <stop stop-color="#6C80B0" stop-opacity="0.3"/>
      <stop offset="1" stop-color="#E8DDCE" stop-opacity="0.15"/>
    </linearGradient>
  </defs>
</svg>
