<svg width="1200" height="900" viewBox="0 0 1200 900" fill="none" xmlns="http://www.w3.org/2000/svg">
  <rect width="1200" height="900" rx="48" fill="#0A0A0D"/>
  <rect x="24" y="24" width="1152" height="852" rx="36" fill="url(#bg)" stroke="rgba(241,236,227,0.08)"/>
  <g opacity="0.24">
    <path d="M118 140H1082" stroke="#E8DDCE"/>
    <path d="M118 290H1082" stroke="#E8DDCE"/>
    <path d="M118 440H1082" stroke="#E8DDCE"/>
    <path d="M118 590H1082" stroke="#E8DDCE"/>
    <path d="M118 740H1082" stroke="#E8DDCE"/>
    <path d="M190 108V792" stroke="#E8DDCE"/>
    <path d="M410 108V792" stroke="#E8DDCE"/>
    <path d="M630 108V792" stroke="#E8DDCE"/>
    <path d="M850 108V792" stroke="#E8DDCE"/>
    <path d="M1070 108V792" stroke="#E8DDCE"/>
  </g>

  <circle cx="352" cy="504" r="208" fill="url(#goldGlow)" opacity="0.34"/>
  <circle cx="806" cy="288" r="180" fill="url(#blueGlow)" opacity="0.22"/>

  <g opacity="0.9">
    <circle cx="322" cy="492" r="104" stroke="url(#ringA)" stroke-width="2"/>
    <circle cx="322" cy="492" r="164" stroke="url(#ringB)" stroke-width="1.5"/>
    <circle cx="322" cy="492" r="220" stroke="url(#ringC)" stroke-width="1.2" stroke-dasharray="8 12"/>
  </g>

  <path d="M226 578C320 514 384 468 470 433C553 399 626 374 720 314C812 256 886 205 998 186" stroke="url(#pathOne)" stroke-width="4" stroke-linecap="round"/>
  <path d="M234 620C334 566 407 546 498 532C591 518 680 495 770 429C850 371 912 332 982 318" stroke="url(#pathTwo)" stroke-width="2.8" stroke-linecap="round"/>
  <path d="M244 356C340 334 417 322 500 295C598 262 677 218 756 162C819 118 892 106 1008 124" stroke="url(#pathThree)" stroke-width="2.4" stroke-linecap="round"/>

  <g filter="url(#softBlur)">
    <circle cx="322" cy="492" r="14" fill="#FFF7ED"/>
    <circle cx="470" cy="433" r="10" fill="#E8DDCE"/>
    <circle cx="720" cy="314" r="10" fill="#FFF7ED"/>
    <circle cx="866" cy="224" r="12" fill="#FFF7ED"/>
    <circle cx="982" cy="318" r="9" fill="#E8DDCE"/>
    <circle cx="998" cy="186" r="8" fill="#FFF7ED"/>
  </g>

  <g opacity="0.95">
    <rect x="148" y="116" width="194" height="48" rx="24" fill="#111118" stroke="#E8DDCE" stroke-opacity="0.18"/>
    <text x="184" y="146" fill="#E8DDCE" font-family="Manrope, Arial, sans-serif" font-size="18" letter-spacing="0.24em">AI STRATEGY</text>
  </g>

  <defs>
    <linearGradient id="bg" x1="600" y1="24" x2="600" y2="876" gradientUnits="userSpaceOnUse">
      <stop stop-color="#111117"/>
      <stop offset="1" stop-color="#0D0D11"/>
    </linearGradient>
    <radialGradient id="goldGlow" cx="0" cy="0" r="1" gradientUnits="userSpaceOnUse" gradientTransform="translate(352 504) rotate(90) scale(208)">
      <stop stop-color="#D8B186" stop-opacity="0.8"/>
      <stop offset="1" stop-color="#D8B186" stop-opacity="0"/>
    </radialGradient>
    <radialGradient id="blueGlow" cx="0" cy="0" r="1" gradientUnits="userSpaceOnUse" gradientTransform="translate(806 288) rotate(90) scale(180)">
      <stop stop-color="#6C80B0" stop-opacity="0.7"/>
      <stop offset="1" stop-color="#6C80B0" stop-opacity="0"/>
    </radialGradient>
    <linearGradient id="ringA" x1="218" y1="388" x2="426" y2="596" gradientUnits="userSpaceOnUse">
      <stop stop-color="#F1E7D8"/>
      <stop offset="1" stop-color="#967B5E"/>
    </linearGradient>
    <linearGradient id="ringB" x1="158" y1="328" x2="486" y2="656" gradientUnits="userSpaceOnUse">
      <stop stop-color="#6C80B0"/>
      <stop offset="0.58" stop-color="#F1E7D8"/>
      <stop offset="1" stop-color="#7A6855"/>
    </linearGradient>
    <linearGradient id="ringC" x1="102" y1="272" x2="542" y2="712" gradientUnits="userSpaceOnUse">
      <stop stop-color="#7A6855"/>
      <stop offset="1" stop-color="#F1E7D8"/>
    </linearGradient>
    <linearGradient id="pathOne" x1="226" y1="382" x2="998" y2="382" gradientUnits="userSpaceOnUse">
      <stop stop-color="#7A6855"/>
      <stop offset="0.48" stop-color="#F1E7D8"/>
      <stop offset="1" stop-color="#6C80B0"/>
    </linearGradient>
    <linearGradient id="pathTwo" x1="234" y1="469" x2="982" y2="469" gradientUnits="userSpaceOnUse">
      <stop stop-color="#4C4338"/>
      <stop offset="0.55" stop-color="#E8DDCE"/>
      <stop offset="1" stop-color="#7A6855"/>
    </linearGradient>
    <linearGradient id="pathThree" x1="244" y1="234" x2="1008" y2="234" gradientUnits="userSpaceOnUse">
      <stop stop-color="#6C80B0"/>
      <stop offset="0.5" stop-color="#F1E7D8"/>
      <stop offset="1" stop-color="#7A6855"/>
    </linearGradient>
    <filter id="softBlur" x="304" y="116" width="714" height="518" filterUnits="userSpaceOnUse" color-interpolation-filters="sRGB">
      <feFlood flood-opacity="0" result="BackgroundImageFix"/>
      <feBlend mode="normal" in="SourceGraphic" in2="BackgroundImageFix" result="shape"/>
      <feGaussianBlur stdDeviation="3.2" result="effect1_foregroundBlur_0_1"/>
    </filter>
  </defs>
</svg>
