<svg width="1200" height="900" viewBox="0 0 1200 900" fill="none" xmlns="http://www.w3.org/2000/svg">
  <rect width="1200" height="900" rx="48" fill="#0A0A0D"/>
  <rect x="24" y="24" width="1152" height="852" rx="36" fill="url(#bg)"/>

  <circle cx="938" cy="640" r="220" fill="url(#goldGlow)" opacity="0.28"/>
  <circle cx="266" cy="234" r="170" fill="url(#blueGlow)" opacity="0.2"/>

  <g opacity="0.16">
    <path d="M122 736H1078" stroke="#E8DDCE"/>
    <path d="M122 602H1078" stroke="#E8DDCE"/>
    <path d="M122 468H1078" stroke="#E8DDCE"/>
    <path d="M122 334H1078" stroke="#E8DDCE"/>
    <path d="M122 200H1078" stroke="#E8DDCE"/>
  </g>

  <path d="M174 676C280 648 358 602 434 532C522 452 590 388 664 346C752 296 846 270 1006 286" stroke="url(#arcOne)" stroke-width="4" stroke-linecap="round"/>
  <path d="M174 722C314 692 418 642 508 554C585 479 651 432 730 410C807 388 888 398 1022 454" stroke="url(#arcTwo)" stroke-width="3" stroke-linecap="round"/>
  <path d="M190 604C286 556 358 498 422 432C508 344 579 286 662 234C744 183 846 162 1018 174" stroke="url(#arcThree)" stroke-width="2.4" stroke-linecap="round"/>

  <g>
    <rect x="210" y="560" width="126" height="160" rx="24" fill="#15151B" stroke="#E8DDCE" stroke-opacity="0.12"/>
    <rect x="374" y="506" width="126" height="214" rx="24" fill="#17171D" stroke="#E8DDCE" stroke-opacity="0.12"/>
    <rect x="538" y="424" width="126" height="296" rx="24" fill="#191920" stroke="#E8DDCE" stroke-opacity="0.12"/>
    <rect x="702" y="336" width="126" height="384" rx="24" fill="#1A1A22" stroke="#E8DDCE" stroke-opacity="0.12"/>
    <rect x="866" y="270" width="126" height="450" rx="24" fill="#1B1B24" stroke="#E8DDCE" stroke-opacity="0.12"/>

    <rect x="236" y="594" width="74" height="98" rx="18" fill="url(#barFill)"/>
    <rect x="400" y="538" width="74" height="154" rx="18" fill="url(#barFill)"/>
    <rect x="564" y="454" width="74" height="238" rx="18" fill="url(#barFill)"/>
    <rect x="728" y="364" width="74" height="328" rx="18" fill="url(#barFill)"/>
    <rect x="892" y="296" width="74" height="396" rx="18" fill="url(#barFill)"/>
  </g>

  <g filter="url(#softGlow)">
    <circle cx="538" cy="424" r="10" fill="#F1E7D8"/>
    <circle cx="702" cy="336" r="10" fill="#F1E7D8"/>
    <circle cx="866" cy="270" r="10" fill="#F1E7D8"/>
  </g>

  <g opacity="0.95">
    <rect x="150" y="114" width="260" height="48" rx="24" fill="#111118" stroke="#E8DDCE" stroke-opacity="0.18"/>
    <text x="186" y="145" fill="#E8DDCE" font-family="Manrope, Arial, sans-serif" font-size="18" letter-spacing="0.24em">TRANSFORMATION</text>
  </g>

  <defs>
    <linearGradient id="bg" x1="600" y1="24" x2="600" y2="876" gradientUnits="userSpaceOnUse">
      <stop stop-color="#111117"/>
      <stop offset="1" stop-color="#0D0D11"/>
    </linearGradient>
    <radialGradient id="goldGlow" cx="0" cy="0" r="1" gradientUnits="userSpaceOnUse" gradientTransform="translate(938 640) rotate(90) scale(220)">
      <stop stop-color="#D7B187" stop-opacity="0.78"/>
      <stop offset="1" stop-color="#D7B187" stop-opacity="0"/>
    </radialGradient>
    <radialGradient id="blueGlow" cx="0" cy="0" r="1" gradientUnits="userSpaceOnUse" gradientTransform="translate(266 234) rotate(90) scale(170)">
      <stop stop-color="#6C80B0" stop-opacity="0.72"/>
      <stop offset="1" stop-color="#6C80B0" stop-opacity="0"/>
    </radialGradient>
    <linearGradient id="arcOne" x1="174" y1="459" x2="1006" y2="459" gradientUnits="userSpaceOnUse">
      <stop stop-color="#E8DDCE"/>
      <stop offset="1" stop-color="#7A6855"/>
    </linearGradient>
    <linearGradient id="arcTwo" x1="174" y1="540" x2="1022" y2="540" gradientUnits="userSpaceOnUse">
      <stop stop-color="#7A6855"/>
      <stop offset="0.56" stop-color="#F1E7D8"/>
      <stop offset="1" stop-color="#6C80B0"/>
    </linearGradient>
    <linearGradient id="arcThree" x1="190" y1="390" x2="1018" y2="390" gradientUnits="userSpaceOnUse">
      <stop stop-color="#6C80B0"/>
      <stop offset="0.5" stop-color="#F1E7D8"/>
      <stop offset="1" stop-color="#7A6855"/>
    </linearGradient>
    <linearGradient id="barFill" x1="273" y1="296" x2="273" y2="692" gradientUnits="userSpaceOnUse">
      <stop stop-color="#EEE2D1"/>
      <stop offset="1" stop-color="#A58B70"/>
    </linearGradient>
    <filter id="softGlow" x="522" y="254" width="360" height="186" filterUnits="userSpaceOnUse" color-interpolation-filters="sRGB">
      <feFlood flood-opacity="0" result="BackgroundImageFix"/>
      <feBlend mode="normal" in="SourceGraphic" in2="BackgroundImageFix" result="shape"/>
      <feGaussianBlur stdDeviation="3" result="effect1_foregroundBlur_0_1"/>
    </filter>
  </defs>
</svg>
